<svg width="63" height="62" viewBox="0 0 63 62" fill="none" xmlns="http://www.w3.org/2000/svg">
<path fill-rule="evenodd" clip-rule="evenodd" d="M23.3955 7.75V15.5L28.5622 12.9167C28.5622 17.7512 24.643 21.6703 19.8085 21.6703C19.3264 21.6703 18.845 21.6305 18.3694 21.5512L13.0622 20.6667V18.0833C13.0622 12.5493 17.4124 8.03138 22.8798 7.76265L23.3955 7.75ZM13.0622 20.6667V22.3187C13.0622 24.5977 13.8156 26.8127 15.2051 28.6191L18.2288 32.55M16.9372 33.5833H13.672C11.715 33.5833 9.926 34.689 9.05081 36.4394L7.89551 38.75M15.1288 41.3333H13.672C11.715 41.3333 9.926 42.439 9.05081 44.1894L7.89551 46.5M22.1038 49.0833H18.8387C16.8817 49.0833 15.0927 50.189 14.2175 51.9394L13.0622 54.25M45.3538 33.5833H48.619C50.576 33.5833 52.365 34.689 53.2402 36.4394L54.3955 38.75M47.1622 41.3333H48.619C50.576 41.3333 52.365 42.439 53.2402 44.1894L54.3955 46.5M40.1872 49.0833H43.4523C45.4093 49.0833 47.1983 50.189 48.0735 51.9394L49.2288 54.25M21.5624 48.6251L23.7184 49.8906C28.304 52.5822 33.987 52.5822 38.5726 49.8906L40.7286 48.6251C44.088 46.6533 46.4681 43.3647 47.2913 39.5573C47.9592 36.4684 45.9966 33.423 42.9077 32.7551L42.7229 32.7183L39.8643 32.2917C34.0833 31.4352 28.2077 31.4352 22.4268 32.2917L19.754 32.6876C16.6279 33.1508 14.4691 36.0604 14.9322 39.1866C14.9506 39.3109 14.9731 39.4345 14.9997 39.5573C15.8229 43.3647 18.203 46.6533 21.5624 48.6251ZM49.2288 20.6667V22.3187C49.2288 24.5977 48.4755 26.8127 47.086 28.6191L44.0622 32.55M38.8955 7.75V15.5L33.7288 12.9167C33.7288 17.7512 37.648 21.6703 42.4825 21.6703C42.9646 21.6703 43.446 21.6305 43.9216 21.5512L49.2288 20.6667V18.0833C49.2288 12.5493 44.8786 8.03138 39.4112 7.76265L38.8955 7.75Z" fill="#104D87"/>
<path d="M13.0622 20.6667L18.3694 21.5512C18.845 21.6305 19.3264 21.6703 19.8085 21.6703C24.643 21.6703 28.5622 17.7512 28.5622 12.9167L23.3955 15.5V7.75L22.8798 7.76265C17.4124 8.03138 13.0622 12.5493 13.0622 18.0833V20.6667ZM13.0622 20.6667V22.3187C13.0622 24.5977 13.8156 26.8127 15.2051 28.6191L18.2288 32.55M16.9372 33.5833H13.672C11.715 33.5833 9.926 34.689 9.05081 36.4394L7.89551 38.75M15.1288 41.3333H13.672C11.715 41.3333 9.926 42.439 9.05081 44.1894L7.89551 46.5M22.1038 49.0833H18.8387C16.8817 49.0833 15.0927 50.189 14.2175 51.9394L13.0622 54.25M45.3538 33.5833H48.619C50.576 33.5833 52.365 34.689 53.2402 36.4394L54.3955 38.75M47.1622 41.3333H48.619C50.576 41.3333 52.365 42.439 53.2402 44.1894L54.3955 46.5M40.1872 49.0833H43.4523C45.4093 49.0833 47.1983 50.189 48.0735 51.9394L49.2288 54.25M49.2288 20.6667V22.3187C49.2288 24.5977 48.4755 26.8127 47.086 28.6191L44.0622 32.55M49.2288 20.6667L43.9216 21.5512C43.446 21.6305 42.9646 21.6703 42.4825 21.6703C37.648 21.6703 33.7288 17.7512 33.7288 12.9167L38.8955 15.5V7.75L39.4112 7.76265C44.8786 8.03138 49.2288 12.5493 49.2288 18.0833V20.6667ZM21.5624 48.6251L23.7184 49.8906C28.304 52.5822 33.987 52.5822 38.5726 49.8906L40.7286 48.6251C44.088 46.6533 46.4681 43.3647 47.2913 39.5573C47.9592 36.4684 45.9966 33.423 42.9077 32.7551L42.7229 32.7183L39.8643 32.2917C34.0833 31.4352 28.2077 31.4352 22.4268 32.2917L19.754 32.6876C16.6279 33.1508 14.4691 36.0604 14.9322 39.1866C14.9506 39.3109 14.9731 39.4345 14.9997 39.5573C15.8229 43.3647 18.203 46.6533 21.5624 48.6251Z" stroke="#104D87" stroke-width="2.58333" stroke-linecap="round"/>
<path d="M27.2703 27.3833V27.125" stroke="#1A3C88" stroke-width="3.875" stroke-linecap="round" stroke-linejoin="round"/>
<path d="M35.0203 27.3833V27.125" stroke="#1A3C88" stroke-width="3.875" stroke-linecap="round" stroke-linejoin="round"/>
</svg>
