<svg width="20" height="16" viewBox="0 0 20 16" fill="none" xmlns="http://www.w3.org/2000/svg">
<path d="M2.925 15.075C2.025 14.1583 1.3125 13.0958 0.7875 11.8875C0.2625 10.6792 0 9.38332 0 7.99999C0 6.59999 0.2625 5.29582 0.7875 4.08749C1.3125 2.87915 2.025 1.82499 2.925 0.924988L4.35 2.34999C3.61667 3.08332 3.04167 3.93332 2.625 4.89999C2.20833 5.86665 2 6.89999 2 7.99999C2 9.11665 2.20833 10.1583 2.625 11.125C3.04167 12.0917 3.61667 12.9333 4.35 13.65L2.925 15.075ZM5.75 12.25C5.21667 11.7 4.79167 11.0625 4.475 10.3375C4.15833 9.61249 4 8.83332 4 7.99999C4 7.14999 4.15833 6.36249 4.475 5.63749C4.79167 4.91249 5.21667 4.28332 5.75 3.74999L7.175 5.17499C6.80833 5.54165 6.52083 5.96665 6.3125 6.44999C6.10417 6.93332 6 7.44999 6 7.99999C6 8.54999 6.10417 9.06665 6.3125 9.54999C6.52083 10.0333 6.80833 10.4583 7.175 10.825L5.75 12.25ZM10 9.99999C9.45 9.99999 8.97917 9.80415 8.5875 9.41249C8.19583 9.02082 8 8.54999 8 7.99999C8 7.44999 8.19583 6.97915 8.5875 6.58749C8.97917 6.19582 9.45 5.99999 10 5.99999C10.55 5.99999 11.0208 6.19582 11.4125 6.58749C11.8042 6.97915 12 7.44999 12 7.99999C12 8.54999 11.8042 9.02082 11.4125 9.41249C11.0208 9.80415 10.55 9.99999 10 9.99999ZM14.25 12.25L12.825 10.825C13.1917 10.4583 13.4792 10.0333 13.6875 9.54999C13.8958 9.06665 14 8.54999 14 7.99999C14 7.44999 13.8958 6.93332 13.6875 6.44999C13.4792 5.96665 13.1917 5.54165 12.825 5.17499L14.25 3.74999C14.7833 4.28332 15.2083 4.91249 15.525 5.63749C15.8417 6.36249 16 7.14999 16 7.99999C16 8.83332 15.8417 9.61249 15.525 10.3375C15.2083 11.0625 14.7833 11.7 14.25 12.25ZM17.075 15.075L15.65 13.65C16.3833 12.9167 16.9583 12.0667 17.375 11.1C17.7917 10.1333 18 9.09999 18 7.99999C18 6.88332 17.7917 5.84165 17.375 4.87499C16.9583 3.90832 16.3833 3.06665 15.65 2.34999L17.075 0.924988C17.975 1.82499 18.6875 2.87915 19.2125 4.08749C19.7375 5.29582 20 6.59999 20 7.99999C20 9.38332 19.7375 10.6792 19.2125 11.8875C18.6875 13.0958 17.975 14.1583 17.075 15.075Z" fill="#104D87"/>
</svg>
