<svg width="19" height="20" viewBox="0 0 19 20" fill="none" xmlns="http://www.w3.org/2000/svg">
<path d="M1.51491 1.44342L1.38968 0.959362L1.38932 0.959454L1.51491 1.44342ZM15.2337 6.13874L15.6287 5.83227L15.6287 5.83222L15.2337 6.13874ZM15.3303 6.43464L14.8306 6.41827L14.8235 6.63408L14.9758 6.78719L15.3303 6.43464ZM15.2825 13.7813L14.9086 13.4493L14.8648 13.4987L14.8353 13.5577L15.2825 13.7813ZM15.2337 13.8614L15.6287 14.1679L15.6287 14.1679L15.2337 13.8614ZM1.51491 18.5567L1.38931 19.0407L1.38968 19.0408L1.51491 18.5567ZM1.52663 17.628L1.36535 17.1547L1.36494 17.1549L1.52663 17.628ZM4.71999 14.9698L5.21084 15.065L5.21086 15.0649L4.71999 14.9698ZM10.0237 10.0001L10.0566 10.499V9.50115L10.0237 10.0001ZM4.71999 5.03034L5.21086 4.93523L5.21084 4.93514L4.71999 5.03034ZM1.52663 2.37214L1.36493 2.84527L1.36535 2.84541L1.52663 2.37214ZM10.1399 10.0001L10.0791 9.50378L10.079 10.4963L10.1399 10.0001ZM10.1946 10.0098L10.0746 10.4952L10.6946 10.6484V10.0098H10.1946ZM10.1946 9.98932H10.6946V9.3503L10.0743 9.504L10.1946 9.98932ZM1.51491 1.44342L1.64015 1.92749C8.09199 0.25827 12.825 3.8502 14.8386 6.44526L15.2337 6.13874L15.6287 5.83222C13.4712 3.05185 8.36591 -0.845524 1.38968 0.959362L1.51491 1.44342ZM15.2337 6.13874L14.8386 6.4452C14.8378 6.44418 14.835 6.44003 14.8329 6.43329C14.8309 6.42688 14.8305 6.4215 14.8306 6.41827L15.3303 6.43464L15.8301 6.451C15.837 6.23885 15.7743 6.01994 15.6287 5.83227L15.2337 6.13874ZM15.3303 6.43464L14.9758 6.78719C15.7865 7.6025 16.3603 8.21554 16.7311 8.73652C17.0979 9.25194 17.2277 9.62534 17.2225 9.96489C17.2171 10.3121 17.0695 10.7152 16.6839 11.2867C16.2978 11.8589 15.7138 12.5425 14.9086 13.4493L15.2825 13.7813L15.6564 14.1133C16.4554 13.2134 17.0838 12.4819 17.5128 11.846C17.9423 11.2095 18.2125 10.6117 18.2223 9.98042C18.2323 9.34156 17.9746 8.7591 17.5458 8.15668C17.1211 7.55983 16.4913 6.89307 15.6849 6.08208L15.3303 6.43464ZM15.2825 13.7813L14.8353 13.5577C14.8321 13.564 14.831 13.5659 14.8313 13.5654C14.8317 13.5646 14.8341 13.5607 14.8386 13.5549L15.2337 13.8614L15.6287 14.1679C15.6769 14.1058 15.7091 14.0461 15.7297 14.0049L15.2825 13.7813ZM15.2337 13.8614L14.8386 13.5549C12.825 16.1499 8.09206 19.7419 1.64015 18.0726L1.51491 18.5567L1.38968 19.0408C8.36598 20.8457 13.4713 16.9483 15.6287 14.1679L15.2337 13.8614ZM1.51491 18.5567L1.64051 18.0727C1.63353 18.0709 1.63477 18.0702 1.64042 18.074C1.64607 18.0778 1.65239 18.0837 1.65775 18.0912C1.6629 18.0984 1.66564 18.105 1.66697 18.1095C1.66825 18.1138 1.66822 18.1162 1.66821 18.1164C1.66821 18.1167 1.66822 18.1159 1.66865 18.1146C1.66906 18.1133 1.66963 18.1122 1.67023 18.1114C1.67072 18.1107 1.67154 18.1097 1.67328 18.1084C1.67487 18.1072 1.67925 18.1042 1.68832 18.1011L1.52663 17.628L1.36494 17.1549C0.92176 17.3063 0.67695 17.7014 0.668445 18.0948C0.659688 18.4999 0.905303 18.9151 1.38931 19.0407L1.51491 18.5567ZM1.52663 17.628L1.68792 18.1013C2.39568 17.8601 3.17994 17.5249 3.83107 17.0509C4.48324 16.5761 5.04296 15.9306 5.21084 15.065L4.71999 14.9698L4.22914 14.8746C4.1264 15.4043 3.77604 15.854 3.24248 16.2424C2.70789 16.6317 2.03078 16.9279 1.36535 17.1547L1.52663 17.628ZM4.71999 14.9698L5.21086 15.0649C5.37896 14.1973 5.89198 13.089 6.7259 12.1784C7.55432 11.2738 8.67385 10.5901 10.0566 10.499L10.0237 10.0001L9.99081 9.50115C8.29554 9.61291 6.94929 10.4537 5.98841 11.503C5.03303 12.5463 4.4332 13.8214 4.22912 14.8747L4.71999 14.9698ZM10.0237 10.0001L10.0566 9.50115C8.67384 9.40999 7.55431 8.72638 6.72589 7.82173C5.89196 6.91109 5.37895 5.80279 5.21086 4.93523L4.71999 5.03034L4.22912 5.12544C4.43319 6.1787 5.03302 7.45381 5.9884 8.49709C6.94928 9.54638 8.29553 10.3872 9.99081 10.499L10.0237 10.0001ZM4.71999 5.03034L5.21084 4.93514C5.04295 4.06949 4.48324 3.42407 3.83107 2.94925C3.17994 2.4752 2.39568 2.14006 1.68792 1.89886L1.52663 2.37214L1.36535 2.84541C2.03078 3.07218 2.70789 3.36847 3.24248 3.75769C3.77604 4.14615 4.1264 4.59584 4.22914 5.12554L4.71999 5.03034ZM1.52663 2.37214L1.68833 1.899C1.67926 1.8959 1.67488 1.89293 1.67328 1.89173C1.67155 1.89043 1.67073 1.88944 1.67024 1.88874C1.66963 1.88788 1.66906 1.88679 1.66865 1.88554C1.66822 1.88421 1.66821 1.88343 1.66821 1.88367C1.66822 1.88391 1.66825 1.88628 1.66697 1.89062C1.66564 1.89515 1.6629 1.90169 1.65774 1.90891C1.65239 1.91641 1.64606 1.92231 1.64041 1.92613C1.63476 1.92997 1.63352 1.92921 1.6405 1.92739L1.51491 1.44342L1.38932 0.959454C0.905301 1.08506 0.659686 1.50018 0.668447 1.90529C0.676955 2.29873 0.921762 2.69381 1.36493 2.84527L1.52663 2.37214ZM10.1399 10.0001L10.079 10.4963C10.0832 10.4969 10.0811 10.4968 10.0746 10.4952L10.1946 10.0098L10.3146 9.52443C10.2724 9.51402 10.2334 9.50778 10.2008 9.50378L10.1399 10.0001ZM10.1946 10.0098H10.6946V9.98932H10.1946H9.6946V10.0098H10.1946ZM10.1946 9.98932L10.0743 9.504C10.0693 9.50525 10.0678 9.50555 10.0682 9.50546C10.0688 9.50535 10.0727 9.50456 10.0791 9.50378L10.1399 10.0001L10.2008 10.4963C10.2491 10.4904 10.2902 10.4807 10.3149 10.4746L10.1946 9.98932Z" fill="#104D87"/>
</svg>
